<svg xmlns="http://www.w3.org/2000/svg" viewBox="0 0 326.1 57.62"><defs><style>.cls-1{fill:#97cc04;}</style></defs><g id="Layer_2" data-name="Layer 2"><g id="Layer_1-2" data-name="Layer 1"><path d="M17.58,12.13c7.72,0,13.76,6,13.76,15.45s-6,15.67-13.76,15.67a12.3,12.3,0,0,1-10-4.79V57.13H0V12.62H7.62V17A12,12,0,0,1,17.58,12.13Zm-2,6.69c-4.08,0-7.94,3.16-7.94,8.87s3.86,8.87,7.94,8.87,8-3.27,8-9S19.7,18.82,15.56,18.82Z"/><path d="M49.25,12.13a11.92,11.92,0,0,1,10,4.79v-4.3h7.67V42.76H59.21v-4.4a11.89,11.89,0,0,1-10,4.89c-7.62,0-13.72-6.25-13.72-15.67S41.58,12.13,49.25,12.13Zm2,6.69c-4.08,0-7.94,3.05-7.94,8.76s3.86,9,7.94,9,8-3.16,8-8.87S55.4,18.82,51.21,18.82Z"/><path d="M76.08,18.87H72.49V12.62h3.59V5.16h7.67v7.46H90.5v6.25H83.75V33.46c0,2,.82,2.88,3.22,2.88H90.5v6.42H85.71c-5.76,0-9.63-2.45-9.63-9.36Z"/><rect x="96.55" y="12.62" width="7.62" height="30.15"/><path d="M124.24,43.25c-8.76,0-15.12-6.09-15.12-15.56s6.2-15.56,15.12-15.56c8.71,0,14.86,5.93,14.86,14.91a17.12,17.12,0,0,1-.22,2.94h-22c.38,4.46,3.43,7,7.24,7a6.2,6.2,0,0,0,6-3.65h8.22C136.71,38.85,131.7,43.25,124.24,43.25ZM116.9,24.86h14.31c-.11-4-3.26-6.48-7.18-6.48C120.38,18.38,117.5,20.72,116.9,24.86Z"/><path d="M165.17,26.11c0-4.84-2.66-7.45-6.69-7.45s-6.8,2.61-6.8,7.45V42.76h-7.62V12.62h7.62v3.75a11.24,11.24,0,0,1,9.08-4.19c7,0,12,4.57,12,12.9V42.76h-7.62Z"/><path d="M180.63,18.87H177V12.62h3.59V5.16h7.67v7.46h6.75v6.25H188.3V33.46c0,2,.82,2.88,3.21,2.88h3.54v6.42h-4.79c-5.77,0-9.63-2.45-9.63-9.36Z"/><path d="M199.57,12.62h7.73l5.33,23,5.77-23h8l5.66,22.9,5.33-22.9h7.29l-8.81,30.14H227.7L222.21,21.7l-5.5,21.06h-8.27Z"/><rect x="247.73" y="12.62" width="7.62" height="30.15"/><path d="M282.83,26.11c0-4.84-2.66-7.45-6.69-7.45s-6.8,2.61-6.8,7.45V42.76h-7.62V12.62h7.62v3.75a11.24,11.24,0,0,1,9.08-4.19c7,0,12,4.57,12,12.9V42.76h-7.62Z"/><path d="M308.47,12.13a11.76,11.76,0,0,1,9.95,4.79v-4.3h7.68V43c0,8.16-5,14.64-14.91,14.64-8.49,0-14.42-4.25-15.19-11.16h7.57c.76,2.72,3.59,4.52,7.4,4.52,4.19,0,7.45-2.39,7.45-8V38.3a11.88,11.88,0,0,1-9.95,5c-7.68,0-13.77-6.25-13.77-15.67S300.79,12.13,308.47,12.13Zm2,6.69c-4.09,0-7.95,3.05-7.95,8.76s3.86,9,7.95,9,8-3.16,8-8.87S314.62,18.82,310.43,18.82Z"/><circle class="cls-1" cx="251.54" cy="4.28" r="4.28"/><circle class="cls-1" cx="100.36" cy="4.56" r="4.28"/></g></g></svg>