<?xml version="1.0" encoding="utf-8"?>
<!-- Generator: Adobe Illustrator 24.3.0, SVG Export Plug-In . SVG Version: 6.00 Build 0)  -->
<svg version="1.1" id="Layer_1" xmlns="http://www.w3.org/2000/svg" xmlns:xlink="http://www.w3.org/1999/xlink" x="0px" y="0px"
	 width="180px" height="52.537px" viewBox="0 0 180 52.537" style="enable-background:new 0 0 180 52.537;" xml:space="preserve">
<style type="text/css">
	.st0{fill:#0A2844;}
	.st1{fill-rule:evenodd;clip-rule:evenodd;fill:url(#SVGID_1_);}
	.st2{fill:url(#SVGID_2_);}
	.st3{fill-rule:evenodd;clip-rule:evenodd;fill:url(#SVGID_3_);}
</style>
<path class="st0" d="M79.042,16.556c-1.154-1.229-2.558-2.221-4.174-2.944c-1.618-0.726-3.385-1.095-5.247-1.095
	c-2.225,0-4.299,0.514-6.156,1.525c-1.091,0.59-2.076,1.302-2.949,2.13v-2.64H55.35v33.955h5.286V36.034
	c0.86,0.799,1.838,1.495,2.931,2.078c1.86,0.987,3.897,1.486,6.057,1.486c1.855,0,3.625-0.378,5.251-1.121
	c1.573-0.717,2.973-1.717,4.165-2.974c1.151-1.212,2.078-2.67,2.756-4.331c0.663-1.627,1-3.361,1-5.159c0-1.797-0.337-3.53-1-5.158
	c-0.674-1.655-1.603-3.104-2.752-4.303L79.042,16.556z M77.31,26.065c0,1.16-0.21,2.266-0.62,3.29
	c-0.425,1.058-1.007,1.985-1.728,2.761c-0.741,0.806-1.598,1.419-2.622,1.877c-1.007,0.451-2.171,0.689-3.366,0.689
	c-1.195,0-2.318-0.238-3.331-0.708c-1.03-0.477-1.933-1.117-2.683-1.897c-0.741-0.773-1.335-1.698-1.765-2.752
	c-0.426-1.043-0.642-2.141-0.642-3.262c0-1.121,0.216-2.219,0.642-3.262c0.43-1.054,1.024-1.979,1.773-2.761
	c0.715-0.767,1.59-1.385,2.674-1.888c1.026-0.475,2.117-0.708,3.331-0.708c1.214,0,2.337,0.231,3.35,0.706
	c1.02,0.477,1.91,1.115,2.642,1.888c0.728,0.78,1.307,1.706,1.722,2.746c0.419,1.082,0.624,2.156,0.624,3.277L77.31,26.065z"/>
<path class="st0" d="M96.362,12.938c-1.81,0-3.465,0.389-4.925,1.158c-0.67,0.359-1.264,0.734-1.793,1.136V5.203h-5.202V38.59h5.286
	V23.182h0.011c0-0.886,0.164-1.642,0.505-2.311c0.35-0.689,0.776-1.231,1.313-1.668c0.521-0.439,1.089-0.765,1.743-0.998
	c0.62-0.222,1.225-0.337,1.797-0.337c0.711,0,1.389,0.093,2.059,0.281c0.633,0.188,1.169,0.484,1.639,0.905
	c0.451,0.406,0.829,0.981,1.123,1.709c0.294,0.728,0.443,1.672,0.443,2.804v15.035h5.286V22.553c0-2.901-0.847-5.251-2.519-6.988
	C101.451,13.822,99.174,12.938,96.362,12.938z"/>
<path class="st0" d="M116.561,13.824c-0.802,0.367-1.497,0.797-2.124,1.32c-0.181,0.149-0.352,0.3-0.514,0.449v-2.346h-5.715v25.565
	h5.8V24.411c0.034-0.428,0.153-0.905,0.358-1.426c0.246-0.629,0.605-1.218,1.063-1.743c0.462-0.523,1.037-0.977,1.702-1.35
	c0.616-0.339,1.283-0.506,2.039-0.506c0.02,0,0.097,0,0.272,0.026c0.052,0.007,0.089,0.019,0.108,0.028l1.627,0.724v-6.906h-1.925
	c-0.948,0-1.851,0.19-2.689,0.566H116.561z"/>
<path class="st0" d="M147.065,16.621c-1.172-1.248-2.574-2.251-4.162-2.974c-1.605-0.745-3.374-1.123-5.258-1.123
	c-2.171,0-4.21,0.501-6.059,1.488c-1.084,0.579-2.065,1.277-2.929,2.082V5.203h-5.286v33.4h5.167v-2.64
	c0.864,0.821,1.849,1.532,2.946,2.128c1.862,1.013,3.934,1.527,6.159,1.527l0.901-0.011v-0.028c1.533-0.099,2.991-0.458,4.352-1.067
	c1.59-0.726,2.99-1.713,4.163-2.936c1.156-1.205,2.085-2.657,2.758-4.309c0.664-1.627,1.001-3.361,1.001-5.158
	c0-1.797-0.337-3.532-1.001-5.158c-0.676-1.659-1.602-3.117-2.752-4.327V16.621z M145.333,26.083c0,1.134-0.209,2.233-0.622,3.268
	c-0.426,1.067-1.004,1.992-1.72,2.75c-0.736,0.78-1.626,1.415-2.646,1.892c-1,0.469-2.128,0.706-3.35,0.706
	c-1.223,0-2.318-0.238-3.331-0.708c-1.03-0.477-1.933-1.117-2.683-1.897c-0.741-0.773-1.335-1.698-1.765-2.752
	c-0.425-1.043-0.641-2.141-0.641-3.262c0-1.121,0.216-2.219,0.641-3.262c0.43-1.054,1.024-1.979,1.774-2.761
	c0.717-0.769,1.59-1.385,2.674-1.888c1.026-0.475,2.117-0.708,3.331-0.708c1.214,0,2.344,0.231,3.357,0.685
	c1.028,0.471,1.89,1.089,2.629,1.882c0.73,0.795,1.311,1.724,1.73,2.761c0.406,1.009,0.62,2.145,0.62,3.29L145.333,26.083z"/>
<path class="st0" d="M178.939,20.782c-0.706-1.663-1.684-3.134-2.905-4.368c-1.233-1.246-2.72-2.244-4.415-2.968
	c-1.705-0.739-3.578-1.113-5.567-1.113s-3.832,0.374-5.562,1.11c-1.7,0.726-3.189,1.724-4.422,2.97
	c-1.231,1.244-2.21,2.713-2.908,4.37c-0.706,1.674-1.063,3.441-1.063,5.249c0,1.808,0.359,3.575,1.063,5.251
	c0.707,1.663,1.683,3.132,2.906,4.368c1.233,1.246,2.719,2.244,4.415,2.968c1.704,0.739,3.577,1.113,5.567,1.113
	c1.989,0,3.832-0.374,5.562-1.11c1.7-0.726,3.188-1.724,4.42-2.97c1.231-1.244,2.209-2.713,2.907-4.37
	c0.704-1.674,1.063-3.441,1.063-5.249c0-1.808-0.359-3.588-1.063-5.251H178.939z M174.504,26.033c0,1.186-0.211,2.29-0.643,3.37
	c-0.43,1.065-1.03,2.024-1.784,2.854c-0.713,0.795-1.607,1.445-2.662,1.933c-1.013,0.469-2.145,0.708-3.365,0.708
	c-1.221,0-2.353-0.238-3.372-0.711c-1.007-0.456-1.903-1.102-2.668-1.92c-0.745-0.799-1.341-1.752-1.771-2.834
	c-0.434-1.097-0.646-2.21-0.646-3.4c0-1.19,0.212-2.302,0.646-3.4c0.421-1.063,1.017-2.017,1.775-2.841
	c0.726-0.788,1.623-1.432,2.67-1.918c1.013-0.469,2.145-0.708,3.366-0.708c1.22,0,2.352,0.238,3.372,0.711
	c1.006,0.456,1.903,1.102,2.668,1.92c0.745,0.799,1.341,1.752,1.771,2.834c0.434,1.097,0.646,2.21,0.646,3.4L174.504,26.033z"/>
<linearGradient id="SVGID_1_" gradientUnits="userSpaceOnUse" x1="33.6536" y1="40.8496" x2="-8.0183" y2="19.3025" gradientTransform="matrix(1 0 0 -1 0 54)">
	<stop  offset="0" style="stop-color:#63F77C"/>
	<stop  offset="1" style="stop-color:#31B286"/>
</linearGradient>
<path class="st1" d="M8.758,21.843C8.793,14.616,14.651,8.77,21.889,8.77c7.238,0,13.131,5.881,13.131,13.131
	c0,0.951-0.104,1.891-0.29,2.784c1.508-2.471,2.378-5.371,2.378-8.468c0-4.315-1.682-8.248-4.443-11.159
	C29.905,2.123,26.065,0.244,21.762,0c-4.884,0.035-9.385,1.659-13.004,4.385C3.434,8.375,0,14.732,0,21.889v30.647l8.758-8.758
	V21.843z"/>
<linearGradient id="SVGID_2_" gradientUnits="userSpaceOnUse" x1="33.9187" y1="48.5131" x2="33.9187" y2="19.0469" gradientTransform="matrix(1 0 0 -1 0 54)">
	<stop  offset="0" style="stop-color:#8D98F7"/>
	<stop  offset="1" style="stop-color:#0B24FB"/>
</linearGradient>
<path class="st2" d="M35.357,32.805c3.422-1.74,6.229-4.408,8.166-7.726c0.151-1.044,0.255-2.111,0.255-3.202
	c0-6.531-2.854-12.377-7.378-16.391c2.1,3.051,3.329,6.74,3.329,10.707c0,5.011-1.96,9.582-5.174,12.969
	c-2.215,2.332-5.011,4.106-8.178,5.058c-0.742,0.267-1.52,0.476-2.32,0.603c3.863,0.441,7.772-0.243,11.287-2.03L35.357,32.805z"/>
<linearGradient id="SVGID_3_" gradientUnits="userSpaceOnUse" x1="30.7945" y1="21.4539" x2="16.0447" y2="5.9772" gradientTransform="matrix(1 0 0 -1 0 54)">
	<stop  offset="0" style="stop-color:#63F77C"/>
	<stop  offset="1" style="stop-color:#31B286"/>
</linearGradient>
<path class="st3" d="M33.629,36.563c-4.663,1.81-9.64,1.636-13.967-0.128c-0.812-0.336-1.612-0.731-2.366-1.172l-5.87,5.87
	c3.109,1.693,6.682,2.656,10.475,2.656c8.213,0,15.358-4.524,19.094-11.217c0.07-0.128,0.151-0.267,0.221-0.395
	c0.22-0.418,0.429-0.847,0.615-1.288c0.128-0.278,0.255-0.557,0.36-0.847c0.047-0.128,0.093-0.255,0.139-0.383
	c-2.088,3.028-5.058,5.475-8.712,6.902H33.629z"/>
</svg>
